<svg width="12" height="12" viewBox="0 0 12 12" fill="none" xmlns="http://www.w3.org/2000/svg">
<path fill-rule="evenodd" clip-rule="evenodd" d="M6 12C9.31371 12 12 9.31371 12 6C12 2.68629 9.31371 0 6 0C2.68629 0 0 2.68629 0 6C0 9.31371 2.68629 12 6 12ZM6.57188 7.66707L6.69375 3H5.30317L5.42816 7.66707H6.57188ZM5.46879 9.52218C5.6167 9.67406 5.79378 9.75 6.00002 9.75C6.13335 9.75 6.25626 9.71528 6.36876 9.64585C6.48126 9.57425 6.57188 9.47987 6.64063 9.36271C6.71146 9.24337 6.74792 9.1121 6.75 8.9689C6.74792 8.75627 6.67188 8.57401 6.52188 8.42213C6.37189 8.27025 6.19793 8.19431 6.00002 8.19431C5.79378 8.19431 5.6167 8.27025 5.46879 8.42213C5.32087 8.57401 5.24796 8.75627 5.25004 8.9689C5.24796 9.1837 5.32087 9.36813 5.46879 9.52218Z" fill="#FF5555"/>
</svg>
